<svg xmlns="http://www.w3.org/2000/svg" xmlns:xlink="http://www.w3.org/1999/xlink" viewBox="0 0 434 395"><defs><style>.a{clip-path:url(#b);}.b{fill:#3f3140;}.c,.f{fill:#fffdfd;}.c,.d,.f{font-size:14px;}.c,.d{font-family:ArialMT, Arial;}.d,.h{fill:#fff;}.e{fill:#69596a;}.f{font-family:Arial-BoldMT, Arial;font-weight:700;}.g{fill:#6a596b;}</style><clipPath id="b"><rect width="434" height="395"/></clipPath></defs><g id="a" class="a"><rect class="h" width="434" height="395"/><g transform="translate(68 24)"><rect class="b" width="280" height="112" rx="6"/><text class="c" transform="translate(24 24)"><tspan x="0" y="13">Lorem ipsum dolor sit amet, </tspan><tspan x="0" y="37">consectetur adipisicing elit, sed do </tspan><tspan x="0" y="61">eiusmod tempor.</tspan></text></g><g transform="translate(147 302)"><rect class="b" width="201" height="64" rx="6"/><text class="d" transform="translate(24 24)"><tspan x="0" y="13">Sed do eiusmod tempor.</tspan></text></g><g transform="translate(85 163)"><rect class="e" width="271" height="88" rx="6"/><text class="d" transform="translate(24 24)"><tspan x="0" y="13">Excepteur sint occaecat cupidatat </tspan><tspan x="0" y="37">non proident.</tspan></text></g><text class="f" transform="translate(217 284)"><tspan x="-50.183" y="0">Mandag, 10:40 </tspan></text><g transform="translate(362 302)"><path class="g" d="M12,0A12,12,0,1,1,0,12,12,12,0,0,1,12,0Z"/><path class="h" d="M0,9V7.875c0-1.238,2.025-2.25,4.5-2.25S9,6.637,9,7.875V9ZM2.25,2.25A2.25,2.25,0,1,1,4.5,4.5,2.25,2.25,0,0,1,2.25,2.25Z" transform="translate(7.5 6.75)"/></g><g transform="translate(48 163)"><path class="b" d="M12,0A12,12,0,1,1,0,12,12,12,0,0,1,12,0Z"/><path class="h" d="M0,9V7.875c0-1.238,2.025-2.25,4.5-2.25S9,6.637,9,7.875V9ZM2.25,2.25A2.25,2.25,0,1,1,4.5,4.5,2.25,2.25,0,0,1,2.25,2.25Z" transform="translate(7.5 6.75)"/></g></g></svg>
