<svg xmlns="http://www.w3.org/2000/svg" xmlns:xlink="http://www.w3.org/1999/xlink" viewBox="0 0 343 72"><defs><style>.a{clip-path:url(#b);}.b{fill:#fffdfd;}.c,.d{fill:#4c374b;}.c{font-size:14px;font-family:Arial-BoldMT, Arial;font-weight:700;}.d{font-size:10px;font-family:ArialMT, Arial;}.e{fill:#6a596b;}.f{fill:#fff;}</style><clipPath id="b"><rect width="343" height="72"/></clipPath></defs><g id="a" class="a"><rect class="f" width="343" height="72"/><g transform="translate(-16 -148)"><rect class="b" width="343" height="73" transform="translate(16 148)"/><g transform="translate(-14 68)"><text class="c" transform="translate(110 114)"><tspan x="0" y="0">Hold B</tspan></text><text class="d" transform="translate(110 130)"><tspan x="0" y="0">Nogen der ved hvor man kan finde opg 02.03.01….</tspan></text></g><g transform="translate(24 -188)"><path class="e" d="M20,0A20,20,0,1,1,0,20,20,20,0,0,1,20,0Z" transform="translate(16 352)"/><path class="f" d="M0,370v-2c0-2.2,3.6-4,8-4s8,1.8,8,4v2Zm4-12a4,4,0,1,1,4,4A4,4,0,0,1,4,358Z" transform="translate(28 10)"/><path class="f" d="M0,370v-2c0-2.2,3.6-4,8-4s8,1.8,8,4v2Zm4-12a4,4,0,1,1,4,4A4,4,0,0,1,4,358Z" transform="translate(28 11)"/><path class="f" d="M0,370v-2c0-2.2,3.6-4,8-4s8,1.8,8,4v2Zm4-12a4,4,0,1,1,4,4A4,4,0,0,1,4,358Z" transform="translate(28 11)"/></g></g></g></svg>
