<svg xmlns="http://www.w3.org/2000/svg" xmlns:xlink="http://www.w3.org/1999/xlink" viewBox="0 0 343 48"><defs><style>.a{clip-path:url(#b);}.b,.g{fill:#fff;}.b{stroke:#ffb4aa;}.c{fill:rgba(255,180,170,0.71);font-size:14px;font-family:ArialMT, Arial;}.d{fill:none;}.e{fill:#f58e81;}.f{stroke:none;}</style><clipPath id="b"><rect width="343" height="48"/></clipPath></defs><g id="a" class="a"><rect class="g" width="343" height="48"/><g transform="translate(-432 -6)"><g transform="translate(432 6)"><g class="b"><rect class="f" width="343" height="48"/><rect class="d" x="0.5" y="0.5" width="342" height="47"/></g><text class="c" transform="translate(20 29)"><tspan x="0" y="0">Søg</tspan></text><g transform="translate(311 16)"><rect class="d" width="16" height="16"/><path class="e" d="M15.9,14.5l-3.3-3.3A6.847,6.847,0,0,0,14,7,6.957,6.957,0,0,0,7,0,6.957,6.957,0,0,0,0,7a6.957,6.957,0,0,0,7,7,6.847,6.847,0,0,0,4.2-1.4l3.3,3.3ZM2,7A4.951,4.951,0,0,1,7,2a4.951,4.951,0,0,1,5,5,4.951,4.951,0,0,1-5,5A4.951,4.951,0,0,1,2,7Z"/></g></g></g></g></svg>
