<svg id="Tools" xmlns="http://www.w3.org/2000/svg" viewBox="0 0 375 171">
  <defs>
    <style>
      .cls-1 {
        fill: #6a596b;
      }

      .cls-2, .cls-5 {
        fill: #fff;
      }

      .cls-2 {
        stroke: #ea847c;
      }

      .cls-3 {
        fill: rgba(105,89,106,0.67);
        font-size: 14px;
        font-family: ArialMT, Arial;
      }

      .cls-4, .cls-8, .cls-9 {
        fill: #f38c80;
      }

      .cls-6 {
        fill: #3f3140;
      }

      .cls-7 {
        fill: none;
      }

      .cls-8 {
        fill-rule: evenodd;
      }

      .cls-9 {
        font-size: 10px;
        font-family: Arial-BoldMT, Arial;
        font-weight: 700;
      }

      .cls-10 {
        stroke: none;
      }
    </style>
  </defs>
  <path id="Path_705" data-name="Path 705" class="cls-1" d="M0,0H375V171H0Z"/>
  <g id="Input" transform="translate(64 16)">
    <g id="Rectangle_311" data-name="Rectangle 311" class="cls-2">
      <rect class="cls-10" width="263" height="48"/>
      <rect class="cls-7" x="0.5" y="0.5" width="262" height="47"/>
    </g>
    <text id="Skriv_her_" data-name="Skriv her…" class="cls-3" transform="translate(20 29)"><tspan x="0" y="0">Skriv her…</tspan></text>
  </g>
  <g id="Symbol_24_1" data-name="Symbol 24 – 1" transform="translate(343 32)">
    <path id="Path_10" data-name="Path 10" class="cls-4" d="M8,0,6.545,1.455l5.506,5.506H0V9.039H12.052L6.545,14.545,8,16l8-8Z"/>
  </g>
  <g id="dropdown" transform="translate(16 26)">
    <circle id="Ellipse_118" data-name="Ellipse 118" class="cls-5" cx="16" cy="16" r="16"/>
    <g id="Symbol_156_4" data-name="Symbol 156 – 4" transform="translate(11 11)">
      <path id="Path_36" data-name="Path 36" class="cls-6" d="M6.7,8.1,2,3.4,3.4,2,6.7,5.3,10,2l1.4,1.4Z" transform="translate(-2)"/>
      <rect id="Rectangle_1467" data-name="Rectangle 1467" class="cls-7" width="10" height="10"/>
    </g>
  </g>
  <g id="tools-2" data-name="tools" transform="translate(22 96)">
    <g id="Camera" transform="translate(10 0)">
      <rect id="Rectangle_252" data-name="Rectangle 252" class="cls-7" width="16" height="16"/>
      <path id="Path_110" data-name="Path 110" class="cls-8" d="M8,10A2,2,0,1,0,6,8,2.006,2.006,0,0,0,8,10ZM8,4A4,4,0,1,1,4,8,4.012,4.012,0,0,1,8,4Zm6,11H2a1.974,1.974,0,0,1-1.4-.6A1.974,1.974,0,0,1,0,13V4A2.006,2.006,0,0,1,2,2H3.6L5.1.5A1.656,1.656,0,0,1,6.3,0H9.8a1.606,1.606,0,0,1,1.1.5L12.4,2H14a2.006,2.006,0,0,1,2,2v9A2.006,2.006,0,0,1,14,15Z" transform="translate(0 1)"/>
    </g>
    <text id="PHOTO" class="cls-9" transform="translate(18 41)"><tspan x="-17.688" y="0">PHOTO</tspan></text>
    <text id="VIDEO" class="cls-9" transform="translate(92 41)"><tspan x="-15.559" y="0">VIDEO</tspan></text>
    <text id="LOCATION" class="cls-9" transform="translate(166 41)"><tspan x="-25.737" y="0">LOCATION</tspan></text>
    <text id="VOICE" class="cls-9" transform="translate(239 41)"><tspan x="-15.559" y="0">VOICE</tspan></text>
    <text id="FILE" class="cls-9" transform="translate(313 41)"><tspan x="-10.833" y="0">FILE</tspan></text>
    <g id="Video-2" data-name="Video" transform="translate(84 0)">
      <rect id="Rectangle_312" data-name="Rectangle 312" class="cls-7" width="16" height="16"/>
      <path id="Path_123" data-name="Path 123" class="cls-4" d="M16,.4V9.733a.287.287,0,0,1-.267.267H15.6c-.133,0-.133,0-.267-.133L12,6.533V9.067c0,.267-.133.4-.267.667a1.43,1.43,0,0,1-.8.267H1.067A1.018,1.018,0,0,1,.4,9.733c-.267-.267-.4-.4-.4-.667v-8A1.018,1.018,0,0,1,.267.4a.95.95,0,0,1,.8-.4h10a1.018,1.018,0,0,1,.667.267,1.9,1.9,0,0,1,.267.8V3.6L15.467.133C15.467,0,15.6,0,15.733,0,15.867.133,16,.133,16,.4Z" transform="translate(0 3)"/>
    </g>
    <g id="location-2" data-name="location" transform="translate(158)">
      <rect id="Rectangle_305" data-name="Rectangle 305" class="cls-7" width="16" height="16" transform="translate(0 0)"/>
      <path id="Path_114" data-name="Path 114" class="cls-8" d="M6.58,9.47A2.786,2.786,0,0,0,9.371,6.679,2.872,2.872,0,0,0,6.58,3.788,2.786,2.786,0,0,0,3.788,6.579,2.942,2.942,0,0,0,6.58,9.47ZM1.894,1.894a6.626,6.626,0,0,1,9.371,9.371L6.58,15.95,1.894,11.265A6.807,6.807,0,0,1,1.894,1.894Z" transform="translate(0.975 0.05)"/>
    </g>
    <g id="Voice-2" data-name="Voice" transform="translate(231 0)">
      <rect id="Rectangle_313" data-name="Rectangle 313" class="cls-7" width="16" height="16"/>
      <path id="Path_124" data-name="Path 124" class="cls-4" d="M12.562,6.612a6.463,6.463,0,0,1-1.455,4.1,6.567,6.567,0,0,1-3.835,2.116V15.6c0,.132,0,.132-.132.264A.462.462,0,0,1,6.876,16H5.554c-.132,0-.132,0-.264-.132a.183.183,0,0,1,0-.264V12.826a6.567,6.567,0,0,1-3.835-2.116A6.463,6.463,0,0,1,0,6.612,1.01,1.01,0,0,1,.264,5.95a1.01,1.01,0,0,1,.661-.264,1.01,1.01,0,0,1,.661.264.727.727,0,0,1,.4.661A3.829,3.829,0,0,0,3.306,9.653a4.3,4.3,0,0,0,3.041,1.322A3.829,3.829,0,0,0,9.388,9.653a4.189,4.189,0,0,0,1.19-3.041.935.935,0,0,1,1.587-.661A.727.727,0,0,1,12.562,6.612Zm-9.256,0v-3.7A2.631,2.631,0,0,1,4.231.793,2.792,2.792,0,0,1,6.347,0,2.466,2.466,0,0,1,8.463.926a2.691,2.691,0,0,1,.793,1.983v3.7a2.631,2.631,0,0,1-.926,2.116,2.691,2.691,0,0,1-1.983.793,2.792,2.792,0,0,1-2.116-.793A2.631,2.631,0,0,1,3.306,6.612Z" transform="translate(2)"/>
    </g>
    <g id="File-2" data-name="File" transform="translate(305 0)">
      <rect id="Rectangle_314" data-name="Rectangle 314" class="cls-7" width="16" height="16"/>
      <path id="Path_125" data-name="Path 125" class="cls-4" d="M5.6,16a5.045,5.045,0,0,1-3.733-1.6A5.151,5.151,0,0,1,0,10.4a5.35,5.35,0,0,1,.4-2,4.611,4.611,0,0,1,.933-1.6L4,4.133A3.213,3.213,0,0,1,6.4,3.2,3.643,3.643,0,0,1,8.933,4.267,3.424,3.424,0,0,1,10,6.933a3.213,3.213,0,0,1-.933,2.4L7.6,10.667a1.018,1.018,0,0,1-.667.267,1.43,1.43,0,0,1-.8-.267,1.9,1.9,0,0,1-.267-.8,1.9,1.9,0,0,1,.267-.8L7.6,7.6A.806.806,0,0,0,8,6.8a1.629,1.629,0,0,0-.533-1.2,1.554,1.554,0,0,0-.933-.267A1.927,1.927,0,0,0,5.6,5.6L2.8,8.267A3.689,3.689,0,0,0,2.133,10.4,3.9,3.9,0,0,0,3.2,12.933a2.767,2.767,0,0,0,1.333.8,2.3,2.3,0,0,0,1.333.133c.4-.133.8-.133,1.067-.267a2.789,2.789,0,0,0,.8-.533l5.333-5.333A2.924,2.924,0,0,0,14,5.467a3.493,3.493,0,0,0-1.2-2.533,5.937,5.937,0,0,0-1.6-.8H10a2.823,2.823,0,0,0-.933.4,1.691,1.691,0,0,1-.8.133A.886.886,0,0,1,7.6,2.133c-.133-.133-.133-.4-.133-.8A2.341,2.341,0,0,1,8,.667,5.251,5.251,0,0,1,10.667,0a4.936,4.936,0,0,1,3.467,1.333,5.626,5.626,0,0,1,1.867,4A5.218,5.218,0,0,1,14.533,9.2L9.2,14.533A4.924,4.924,0,0,1,5.6,16Z" transform="translate(0 0)"/>
    </g>
  </g>
</svg>
