<svg xmlns="http://www.w3.org/2000/svg" viewBox="0 0 23.6 23.6">
  <defs>
    <style>
      .cls-1 {
        fill: none;
      }

      .cls-2 {
        fill: #3f3140;
      }
    </style>
  </defs>
  <g id="Group_230" data-name="Group 230" transform="translate(-323 -261)">
    <g id="Price" transform="translate(138 -29)">
      <rect id="Rectangle_554" data-name="Rectangle 554" class="cls-1" width="23.6" height="23.6" transform="translate(185 290)"/>
      <path id="Path_148" data-name="Path 148" class="cls-2" d="M.393,14.947C.2,14.553,0,14.357,0,13.963a1.5,1.5,0,0,1,.393-.983L13.177.2a.193.193,0,0,1,.2-.2h8.653a1.5,1.5,0,0,1,.983.393,1.4,1.4,0,0,1,.59,1.18v8.653c0,.2,0,.2-.2.393L10.62,23.4a8.518,8.518,0,0,1-.983.2,1.5,1.5,0,0,1-.983-.393ZM16.913,3.54a2.428,2.428,0,0,0-.787,1.573,2.233,2.233,0,0,0,.59,1.573,2.393,2.393,0,0,0,3.147,0,2.233,2.233,0,0,0,.59-1.573A2.119,2.119,0,0,0,20.06,3.54a2.393,2.393,0,0,0-3.147,0Z" transform="translate(185 290)"/>
    </g>
  </g>
</svg>
