<svg xmlns="http://www.w3.org/2000/svg" viewBox="0 0 347 278">
  <defs>
    <style>
      .cls-1 {
        fill: #6a596b;
        stroke: #69596a;
        stroke-width: 3px;
      }

      .cls-2 {
        fill: #fff;
      }
    </style>
  </defs>
  <g id="skema_måned" transform="translate(1.5 -187.5)">
    <rect id="Rectangle_34" data-name="Rectangle 34" class="cls-1" width="344" height="275" transform="translate(0 189)"/>
    <path id="Path_259" data-name="Path 259" class="cls-2" d="M14.595,223.014V212.061h2.139l2.542,7.755q.352,1.082.513,1.621.183-.6.571-1.756l2.57-7.62h1.912v10.952h-1.37v-9.167l-3.12,9.167H19.07l-3.105-9.324v9.323Z"/>
    <path id="Path_260" data-name="Path 260" class="cls-2" d="M25.955,223.014l4.123-10.952h1.531L36,223.014H34.385L33.133,219.7h-4.49l-1.179,3.317Zm3.1-4.5h3.641l-1.121-3.033q-.513-1.383-.762-2.271a14.182,14.182,0,0,1-.578,2.092Z"/>
    <path id="Path_261" data-name="Path 261" class="cls-2" d="M37.124,223.014V212.061h1.458l5.64,8.6v-8.6h1.362v10.952H44.126l-5.64-8.607v8.607Z"/>
    <path id="Path_262" data-name="Path 262" class="cls-2" d="M69.418,223.014v-9.66H65.881v-1.292h8.511v1.292H70.839v9.66Z"/>
    <path id="Path_263" data-name="Path 263" class="cls-2" d="M76.091,223.014V212.061h1.421v10.952Z"/>
    <path id="Path_264" data-name="Path 264" class="cls-2" d="M80.038,223.014V212.061H84.8a6.234,6.234,0,0,1,2.183.295,2.4,2.4,0,0,1,1.194,1.042,3.158,3.158,0,0,1,.446,1.651,2.786,2.786,0,0,1-.739,1.965A3.709,3.709,0,0,1,85.6,218.03a3.665,3.665,0,0,1,.856.546,7.5,7.5,0,0,1,1.18,1.457l1.867,2.98H87.714l-1.421-2.278q-.623-.986-1.025-1.51a3.287,3.287,0,0,0-.721-.731,2.138,2.138,0,0,0-.648-.292,4.264,4.264,0,0,0-.791-.052H81.459v4.863Zm1.421-6.119h3.055a4.505,4.505,0,0,0,1.523-.2,1.628,1.628,0,0,0,.835-.657,1.8,1.8,0,0,0,.285-.982,1.646,1.646,0,0,0-.553-1.277,2.552,2.552,0,0,0-1.747-.5h-3.4Z"/>
    <path id="Path_265" data-name="Path 265" class="cls-2" d="M109.546,217.68a6.023,6.023,0,0,1,1.435-4.27,4.834,4.834,0,0,1,3.706-1.543,5.061,5.061,0,0,1,2.681.725,4.7,4.7,0,0,1,1.819,2.02,6.67,6.67,0,0,1,.627,2.94,6.559,6.559,0,0,1-.659,2.98,4.554,4.554,0,0,1-1.868,1.991,5.249,5.249,0,0,1-2.607.676,5,5,0,0,1-2.71-.747,4.774,4.774,0,0,1-1.809-2.039,6.285,6.285,0,0,1-.615-2.733Zm1.465.022a4.445,4.445,0,0,0,1.043,3.119,3.593,3.593,0,0,0,5.259-.012,4.708,4.708,0,0,0,1.037-3.265,5.716,5.716,0,0,0-.443-2.335,3.427,3.427,0,0,0-3.212-2.095,3.6,3.6,0,0,0-2.6,1.057,4.785,4.785,0,0,0-1.087,3.53Z"/>
    <path id="Path_266" data-name="Path 266" class="cls-2" d="M121.631,223.014V212.061h1.457l5.64,8.6v-8.6h1.362v10.952h-1.457l-5.64-8.607v8.607Z"/>
    <path id="Path_267" data-name="Path 267" class="cls-2" d="M131.994,219.5l1.341-.12a3.059,3.059,0,0,0,.442,1.349,2.423,2.423,0,0,0,1.081.852,4.017,4.017,0,0,0,1.648.325,3.884,3.884,0,0,0,1.436-.246,2,2,0,0,0,.927-.677,1.591,1.591,0,0,0,.3-.938,1.445,1.445,0,0,0-.293-.9,2.17,2.17,0,0,0-.967-.645,18.332,18.332,0,0,0-1.911-.534,9.7,9.7,0,0,1-2.073-.684,2.933,2.933,0,0,1-1.147-1.02,2.54,2.54,0,0,1-.377-1.363,2.822,2.822,0,0,1,.462-1.55,2.87,2.87,0,0,1,1.348-1.095,5.022,5.022,0,0,1,1.97-.373,5.283,5.283,0,0,1,2.105.392,3.052,3.052,0,0,1,1.4,1.154,3.361,3.361,0,0,1,.527,1.726l-1.362.1a2.258,2.258,0,0,0-.744-1.568,2.852,2.852,0,0,0-1.871-.53,2.96,2.96,0,0,0-1.879.482,1.456,1.456,0,0,0-.589,1.162,1.255,1.255,0,0,0,.417.971,5.589,5.589,0,0,0,2.143.781,14,14,0,0,1,2.377.7,3.263,3.263,0,0,1,1.384,1.117,2.761,2.761,0,0,1,.447,1.558,3.023,3.023,0,0,1-.491,1.648,3.242,3.242,0,0,1-1.41,1.2,4.814,4.814,0,0,1-2.068.43,6.09,6.09,0,0,1-2.443-.433,3.439,3.439,0,0,1-1.545-1.3,3.745,3.745,0,0,1-.59-1.97Z"/>
    <path id="Path_268" data-name="Path 268" class="cls-2" d="M160.729,223.014v-9.66h-3.537v-1.292H165.7v1.292h-3.553v9.66Z"/>
    <path id="Path_269" data-name="Path 269" class="cls-2" d="M166.456,217.68a6.023,6.023,0,0,1,1.435-4.27,4.834,4.834,0,0,1,3.706-1.543,5.055,5.055,0,0,1,2.68.725,4.69,4.69,0,0,1,1.82,2.02,6.671,6.671,0,0,1,.627,2.94,6.559,6.559,0,0,1-.66,2.98,4.546,4.546,0,0,1-1.867,1.991,5.243,5.243,0,0,1-2.606.676,5,5,0,0,1-2.71-.747,4.776,4.776,0,0,1-1.81-2.039A6.284,6.284,0,0,1,166.456,217.68Zm1.465.022a4.446,4.446,0,0,0,1.044,3.119,3.592,3.592,0,0,0,5.258-.012,4.708,4.708,0,0,0,1.037-3.265,5.718,5.718,0,0,0-.443-2.335,3.428,3.428,0,0,0-3.211-2.095,3.6,3.6,0,0,0-2.6,1.057,4.785,4.785,0,0,0-1.088,3.53Z"/>
    <path id="Path_270" data-name="Path 270" class="cls-2" d="M178.578,223.014V212.061h4.76a6.242,6.242,0,0,1,2.184.295,2.4,2.4,0,0,1,1.193,1.042,3.158,3.158,0,0,1,.447,1.651,2.787,2.787,0,0,1-.74,1.965,3.709,3.709,0,0,1-2.285,1.016,3.692,3.692,0,0,1,.857.546,7.531,7.531,0,0,1,1.179,1.457l1.868,2.981h-1.787l-1.422-2.278q-.622-.986-1.025-1.51a3.282,3.282,0,0,0-.721-.732,2.139,2.139,0,0,0-.648-.292,4.266,4.266,0,0,0-.791-.052H180v4.863Zm1.42-6.119h3.055a4.506,4.506,0,0,0,1.523-.205,1.628,1.628,0,0,0,.835-.657,1.805,1.805,0,0,0,.286-.982,1.643,1.643,0,0,0-.554-1.277,2.55,2.55,0,0,0-1.747-.5H180Z"/>
    <path id="Path_271" data-name="Path 271" class="cls-2" d="M206.229,223.014V212.061h7.244v1.292h-5.823v3.392h5.039v1.293h-5.039v4.976Z"/>
    <path id="Path_272" data-name="Path 272" class="cls-2" d="M215.34,223.014V212.061h4.76a6.239,6.239,0,0,1,2.184.295,2.4,2.4,0,0,1,1.193,1.042,3.159,3.159,0,0,1,.447,1.651,2.787,2.787,0,0,1-.74,1.965,3.709,3.709,0,0,1-2.285,1.016,3.7,3.7,0,0,1,.857.546,7.534,7.534,0,0,1,1.179,1.457l1.868,2.98h-1.787l-1.422-2.278q-.623-.986-1.025-1.51a3.287,3.287,0,0,0-.721-.731,2.139,2.139,0,0,0-.648-.292,4.265,4.265,0,0,0-.791-.052H216.76v4.863Zm1.42-6.119h3.055a4.505,4.505,0,0,0,1.523-.205,1.628,1.628,0,0,0,.835-.657,1.806,1.806,0,0,0,.286-.982,1.643,1.643,0,0,0-.554-1.277,2.55,2.55,0,0,0-1.747-.5h-3.4Z"/>
    <path id="Path_273" data-name="Path 273" class="cls-2" d="M226.179,223.014V212.061h7.764v1.292H227.6v3.355h5.939v1.285H227.6v3.729h6.592v1.292Z"/>
    <path id="Path_274" data-name="Path 274" class="cls-2" d="M253.138,223.014V212.061h1.421v9.66h5.288v1.292Z"/>
    <path id="Path_275" data-name="Path 275" class="cls-2" d="M269.536,213.063l1.23-1.4.726.627-1.289,1.479a6.825,6.825,0,0,1,.85,1.674,7.1,7.1,0,0,1,.293,2.106,6.536,6.536,0,0,1-.667,3,4.578,4.578,0,0,1-1.871,1.987,5.175,5.175,0,0,1-2.56.672,5.447,5.447,0,0,1-1.832-.291,5.805,5.805,0,0,1-1.472-.859l-1.23,1.4-.726-.627,1.289-1.472a8.058,8.058,0,0,1-.959-1.9,6.51,6.51,0,0,1-.242-1.895,6.637,6.637,0,0,1,.66-3.007,4.6,4.6,0,0,1,1.849-2,5.244,5.244,0,0,1,2.647-.68,5.065,5.065,0,0,1,1.718.265,5.955,5.955,0,0,1,1.586.923Zm-.879,1.009a4.844,4.844,0,0,0-1.205-.755,3.313,3.313,0,0,0-1.212-.2,3.487,3.487,0,0,0-2.651,1.109,4.662,4.662,0,0,0-1.048,3.312,6.578,6.578,0,0,0,.162,1.539,5.658,5.658,0,0,0,.49,1.233Zm.6.77-5.441,6.216a3.914,3.914,0,0,0,1.039.657,3.638,3.638,0,0,0,1.348.246,3.4,3.4,0,0,0,2.637-1.15,4.642,4.642,0,0,0,1.041-3.228,5.818,5.818,0,0,0-.623-2.742Z"/>
    <path id="Path_276" data-name="Path 276" class="cls-2" d="M273.228,223.014V212.061h4.76a6.241,6.241,0,0,1,2.184.295,2.4,2.4,0,0,1,1.193,1.042,3.158,3.158,0,0,1,.447,1.651,2.787,2.787,0,0,1-.74,1.965,3.709,3.709,0,0,1-2.285,1.016,3.7,3.7,0,0,1,.857.546,7.53,7.53,0,0,1,1.179,1.457l1.868,2.98H280.9l-1.422-2.278q-.623-.986-1.025-1.51a3.284,3.284,0,0,0-.721-.732,2.139,2.139,0,0,0-.648-.292,4.264,4.264,0,0,0-.791-.052h-1.648v4.863Zm1.42-6.119H277.7a4.506,4.506,0,0,0,1.523-.205,1.628,1.628,0,0,0,.835-.657,1.805,1.805,0,0,0,.286-.982,1.643,1.643,0,0,0-.554-1.277,2.55,2.55,0,0,0-1.747-.5h-3.4Z"/>
    <path id="Path_277" data-name="Path 277" class="cls-2" d="M299.344,219.5l1.34-.12a3.059,3.059,0,0,0,.443,1.349,2.42,2.42,0,0,0,1.08.852,4.021,4.021,0,0,0,1.648.325,3.884,3.884,0,0,0,1.436-.246,2,2,0,0,0,.927-.677,1.591,1.591,0,0,0,.3-.937,1.445,1.445,0,0,0-.293-.9,2.17,2.17,0,0,0-.967-.645,18.367,18.367,0,0,0-1.912-.534,9.688,9.688,0,0,1-2.072-.684,2.932,2.932,0,0,1-1.146-1.02,2.539,2.539,0,0,1-.377-1.363,2.83,2.83,0,0,1,.461-1.55,2.875,2.875,0,0,1,1.348-1.095,5.027,5.027,0,0,1,1.971-.373,5.283,5.283,0,0,1,2.105.392,3.049,3.049,0,0,1,1.4,1.154,3.361,3.361,0,0,1,.527,1.726l-1.361.1a2.262,2.262,0,0,0-.744-1.568,2.852,2.852,0,0,0-1.871-.53,2.96,2.96,0,0,0-1.879.481,1.457,1.457,0,0,0-.59,1.162,1.256,1.256,0,0,0,.418.971,5.59,5.59,0,0,0,2.143.781,14.031,14.031,0,0,1,2.377.7,3.269,3.269,0,0,1,1.384,1.117,2.76,2.76,0,0,1,.446,1.558,3.022,3.022,0,0,1-.49,1.647,3.243,3.243,0,0,1-1.41,1.2,4.817,4.817,0,0,1-2.068.43,6.087,6.087,0,0,1-2.443-.433,3.439,3.439,0,0,1-1.545-1.3,3.744,3.744,0,0,1-.59-1.97Z"/>
    <path id="Path_278" data-name="Path 278" class="cls-2" d="M317.83,213.063l1.23-1.4.726.627-1.289,1.479a6.829,6.829,0,0,1,.85,1.674,7.1,7.1,0,0,1,.293,2.106,6.535,6.535,0,0,1-.667,3,4.579,4.579,0,0,1-1.871,1.987,5.175,5.175,0,0,1-2.56.672,5.447,5.447,0,0,1-1.832-.291,5.8,5.8,0,0,1-1.472-.859l-1.231,1.4-.726-.627,1.289-1.472a8.06,8.06,0,0,1-.959-1.9,6.513,6.513,0,0,1-.242-1.895,6.636,6.636,0,0,1,.66-3.007,4.6,4.6,0,0,1,1.849-2,5.245,5.245,0,0,1,2.647-.68,5.064,5.064,0,0,1,1.718.265,5.955,5.955,0,0,1,1.587.923Zm-.879,1.009a4.845,4.845,0,0,0-1.205-.755,3.313,3.313,0,0,0-1.212-.2,3.488,3.488,0,0,0-2.651,1.109,4.663,4.663,0,0,0-1.048,3.312,6.579,6.579,0,0,0,.162,1.539,5.656,5.656,0,0,0,.49,1.233Zm.6.77-5.441,6.216a3.914,3.914,0,0,0,1.039.657,3.638,3.638,0,0,0,1.348.246,3.4,3.4,0,0,0,2.637-1.15,4.643,4.643,0,0,0,1.041-3.228,5.819,5.819,0,0,0-.623-2.742Z"/>
    <path id="Path_279" data-name="Path 279" class="cls-2" d="M321.484,223.014V212.061h1.457l5.641,8.6v-8.6h1.361v10.952h-1.457l-5.64-8.607v8.607Z"/>
    <path id="Path_280" data-name="Path 280" class="cls-2" d="M316.34,258.18h-1.318v-8.57a6.792,6.792,0,0,1-1.248.927,8.909,8.909,0,0,1-1.389.7v-1.3a7.947,7.947,0,0,0,1.934-1.284,5.032,5.032,0,0,0,1.172-1.465h.85Z" transform="translate(0 3.258)"/>
    <path id="Path_281" data-name="Path 281" class="cls-2" d="M33.528,292.055v1.292h-7.1a2.422,2.422,0,0,1,.154-.934,4.971,4.971,0,0,1,.867-1.457,13.694,13.694,0,0,1,1.726-1.658,14.764,14.764,0,0,0,2.365-2.32,2.81,2.81,0,0,0,.615-1.617,1.813,1.813,0,0,0-.56-1.349,2,2,0,0,0-1.461-.549,2.036,2.036,0,0,0-1.523.583,2.228,2.228,0,0,0-.578,1.613l-1.355-.142a3.433,3.433,0,0,1,1.048-2.357,3.528,3.528,0,0,1,2.438-.811,3.367,3.367,0,0,1,2.446.874,2.9,2.9,0,0,1,.9,2.167,3.337,3.337,0,0,1-.264,1.292,5.021,5.021,0,0,1-.876,1.338,21.422,21.422,0,0,1-2.032,1.927q-1.187,1.017-1.523,1.379a4.392,4.392,0,0,0-.557.729Z" transform="translate(0 5.227)"/>
    <path id="Path_282" data-name="Path 282" class="cls-2" d="M74.069,290.455l1.318-.179a2.986,2.986,0,0,0,.772,1.647,1.886,1.886,0,0,0,1.329.5,2.109,2.109,0,0,0,1.571-.657,2.244,2.244,0,0,0,.641-1.629,2.083,2.083,0,0,0-.593-1.527,2.028,2.028,0,0,0-1.509-.6,3.721,3.721,0,0,0-.931.149l.146-1.181a2.07,2.07,0,0,0,.213.016,2.674,2.674,0,0,0,1.516-.448,1.544,1.544,0,0,0,.674-1.383,1.649,1.649,0,0,0-.49-1.225,1.724,1.724,0,0,0-1.268-.486,1.777,1.777,0,0,0-1.281.493,2.5,2.5,0,0,0-.659,1.48l-1.318-.239a3.478,3.478,0,0,1,1.1-2.1,3.138,3.138,0,0,1,2.131-.743,3.464,3.464,0,0,1,1.619.385,2.758,2.758,0,0,1,1.523,2.462,2.344,2.344,0,0,1-.374,1.292,2.563,2.563,0,0,1-1.105.927,2.485,2.485,0,0,1,1.479.93,2.871,2.871,0,0,1,.527,1.768,3.264,3.264,0,0,1-1.025,2.432,3.57,3.57,0,0,1-2.593,1,3.293,3.293,0,0,1-3.413-3.086Z" transform="translate(0 5.232)"/>
    <path id="Path_283" data-name="Path 283" class="cls-2" d="M125.75,293.347v-2.622h-4.658v-1.232l4.9-7.1h1.076v7.1h1.45v1.232h-1.45v2.622Zm0-3.854v-4.939l-3.361,4.939Z" transform="translate(0 5.229)"/>
    <path id="Path_284" data-name="Path 284" class="cls-2" d="M168.987,290.478l1.384-.119a2.551,2.551,0,0,0,.714,1.55,1.917,1.917,0,0,0,1.351.519,2.086,2.086,0,0,0,1.611-.732,2.791,2.791,0,0,0,.659-1.942,2.522,2.522,0,0,0-.634-1.815,2.188,2.188,0,0,0-1.658-.664,2.283,2.283,0,0,0-1.956,1.061l-1.237-.164,1.04-5.626H175.6v1.285h-4.284l-.579,2.943a3.452,3.452,0,0,1,2.029-.687,3.18,3.18,0,0,1,2.373.994,3.509,3.509,0,0,1,.967,2.555,4.047,4.047,0,0,1-.85,2.57,3.381,3.381,0,0,1-2.82,1.329,3.43,3.43,0,0,1-2.392-.837A3.29,3.29,0,0,1,168.987,290.478Z" transform="translate(0 5.238)"/>
    <path id="Path_285" data-name="Path 285" class="cls-2" d="M223.289,285.076l-1.311.105a2.559,2.559,0,0,0-.5-1.151,1.731,1.731,0,0,0-1.318-.575,1.784,1.784,0,0,0-1.105.359,3.05,3.05,0,0,0-.982,1.351,7.2,7.2,0,0,0-.373,2.533,3.042,3.042,0,0,1,2.607-1.457,2.965,2.965,0,0,1,2.245.989,3.6,3.6,0,0,1,.927,2.56,4.276,4.276,0,0,1-.437,1.916,3.14,3.14,0,0,1-2.926,1.826,3.351,3.351,0,0,1-2.689-1.236,6.334,6.334,0,0,1-1.039-4.075,7.419,7.419,0,0,1,1.149-4.617,3.281,3.281,0,0,1,2.7-1.255,3,3,0,0,1,2.077.725,3.1,3.1,0,0,1,.97,2Zm-5.383,4.722a3.175,3.175,0,0,0,.289,1.33,2.2,2.2,0,0,0,.81.968,1.992,1.992,0,0,0,1.091.332,1.843,1.843,0,0,0,1.435-.687,2.738,2.738,0,0,0,.6-1.867,2.563,2.563,0,0,0-.594-1.789,1.93,1.93,0,0,0-1.494-.654,2.01,2.01,0,0,0-1.516.654,2.378,2.378,0,0,0-.623,1.714Z" transform="translate(0 5.231)"/>
    <path id="Path_286" data-name="Path 286" class="cls-2" d="M264,283.829v-1.293h6.95v1.046a14.924,14.924,0,0,0-2.032,2.959,18.2,18.2,0,0,0-1.557,3.795,14.424,14.424,0,0,0-.506,3.011H265.5a13.673,13.673,0,0,1,.5-3.123,16.569,16.569,0,0,1,1.366-3.529,15.151,15.151,0,0,1,1.893-2.865Z" transform="translate(0 5.234)"/>
    <path id="Path_287" data-name="Path 287" class="cls-2" d="M313.4,287.407a2.481,2.481,0,0,1-1.216-.874,2.315,2.315,0,0,1-.4-1.359,2.682,2.682,0,0,1,.843-2.01,3.49,3.49,0,0,1,4.5.018,2.723,2.723,0,0,1,.857,2.028,2.263,2.263,0,0,1-.393,1.326,2.473,2.473,0,0,1-1.189.87,2.9,2.9,0,0,1,1.5,1.062,2.955,2.955,0,0,1,.517,1.748,3.176,3.176,0,0,1-.975,2.36,3.909,3.909,0,0,1-5.127,0,3.224,3.224,0,0,1-.975-2.395,2.938,2.938,0,0,1,.531-1.789,2.66,2.66,0,0,1,1.513-.982Zm-.689,2.779a2.465,2.465,0,0,0,.268,1.113,1.91,1.91,0,0,0,.795.833,2.29,2.29,0,0,0,1.135.295,2.108,2.108,0,0,0,1.561-.62,2.144,2.144,0,0,0,.615-1.576,2.183,2.183,0,0,0-.634-1.606,2.151,2.151,0,0,0-1.586-.635,2.062,2.062,0,0,0-1.542.628,2.157,2.157,0,0,0-.611,1.568Zm.425-5.058a1.786,1.786,0,0,0,3.014,1.273,1.631,1.631,0,0,0,.487-1.2,1.775,1.775,0,0,0-3-1.256,1.6,1.6,0,0,0-.5,1.181Z" transform="translate(0 5.231)"/>
    <path id="Path_288" data-name="Path 288" class="cls-2" d="M26.8,325.98l1.268-.12a2.259,2.259,0,0,0,.615,1.322,1.666,1.666,0,0,0,1.164.411,1.977,1.977,0,0,0,1.065-.284,2.286,2.286,0,0,0,.751-.758,4.511,4.511,0,0,0,.491-1.281,6.882,6.882,0,0,0,.2-1.643c0-.06,0-.15-.007-.269a3.05,3.05,0,0,1-1.081,1.042,2.886,2.886,0,0,1-1.482.4,2.972,2.972,0,0,1-2.256-.986,3.649,3.649,0,0,1-.923-2.6,3.734,3.734,0,0,1,.963-2.682,3.185,3.185,0,0,1,2.413-1.017,3.4,3.4,0,0,1,1.915.575,3.578,3.578,0,0,1,1.318,1.64,8.213,8.213,0,0,1,.451,3.082,10.156,10.156,0,0,1-.447,3.343,3.916,3.916,0,0,1-1.329,1.895,3.4,3.4,0,0,1-2.069.649,2.971,2.971,0,0,1-2.058-.713A3.093,3.093,0,0,1,26.8,325.98Zm5.4-4.834a2.669,2.669,0,0,0-.6-1.838,1.88,1.88,0,0,0-1.454-.68,1.99,1.99,0,0,0-1.53.732,2.747,2.747,0,0,0-.652,1.9,2.368,2.368,0,0,0,.619,1.7,2.018,2.018,0,0,0,1.527.654,1.935,1.935,0,0,0,1.5-.654,2.609,2.609,0,0,0,.589-1.811Z" transform="translate(0 7.202)"/>
    <path id="Path_289" data-name="Path 289" class="cls-2" d="M74.856,328.513H73.538v-8.569a6.789,6.789,0,0,1-1.248.927,8.9,8.9,0,0,1-1.389.7v-1.3a7.947,7.947,0,0,0,1.934-1.284,5.032,5.032,0,0,0,1.172-1.465h.85Z" transform="translate(0 7.197)"/>
    <path id="Path_290" data-name="Path 290" class="cls-2" d="M78.233,323.111a10.19,10.19,0,0,1,.392-3.126,3.9,3.9,0,0,1,1.164-1.827,2.945,2.945,0,0,1,1.945-.643,3.112,3.112,0,0,1,1.516.355,2.916,2.916,0,0,1,1.077,1.023,5.543,5.543,0,0,1,.666,1.628,11.032,11.032,0,0,1,.242,2.589,10.232,10.232,0,0,1-.389,3.111,3.9,3.9,0,0,1-1.161,1.831,3.223,3.223,0,0,1-4.391-.49A7.327,7.327,0,0,1,78.233,323.111Zm1.354,0a6.979,6.979,0,0,0,.619,3.59,1.75,1.75,0,0,0,3.054,0,10.716,10.716,0,0,0,0-7.18,1.829,1.829,0,0,0-1.541-.889,1.681,1.681,0,0,0-1.45.784,7.065,7.065,0,0,0-.682,3.7Z" transform="translate(0 7.202)"/>
    <path id="Path_291" data-name="Path 291" class="cls-2" d="M122.876,328.513h-1.318v-8.569a6.8,6.8,0,0,1-1.249.927,8.892,8.892,0,0,1-1.388.7v-1.3a7.947,7.947,0,0,0,1.934-1.284,5.032,5.032,0,0,0,1.172-1.465h.85Z" transform="translate(0 7.197)"/>
    <path id="Path_292" data-name="Path 292" class="cls-2" d="M130.1,328.513h-1.318v-8.569a6.788,6.788,0,0,1-1.248.927,8.9,8.9,0,0,1-1.389.7v-1.3a7.947,7.947,0,0,0,1.934-1.284,5.031,5.031,0,0,0,1.172-1.465h.85Z" transform="translate(0 7.197)"/>
    <path id="Path_293" data-name="Path 293" class="cls-2" d="M169.781,328.513h-1.318v-8.569a6.789,6.789,0,0,1-1.248.927,8.9,8.9,0,0,1-1.389.7v-1.3a7.947,7.947,0,0,0,1.934-1.284,5.032,5.032,0,0,0,1.172-1.465h.85Z" transform="translate(0 7.197)"/>
    <path id="Path_294" data-name="Path 294" class="cls-2" d="M180.086,327.221v1.292h-7.1a2.439,2.439,0,0,1,.153-.934,5,5,0,0,1,.868-1.457,13.635,13.635,0,0,1,1.726-1.658,14.812,14.812,0,0,0,2.365-2.32,2.811,2.811,0,0,0,.615-1.617,1.813,1.813,0,0,0-.561-1.349,2,2,0,0,0-1.461-.549,2.036,2.036,0,0,0-1.523.583,2.225,2.225,0,0,0-.578,1.613l-1.355-.142a3.432,3.432,0,0,1,1.047-2.357,3.53,3.53,0,0,1,2.439-.811,3.367,3.367,0,0,1,2.446.874,2.9,2.9,0,0,1,.9,2.167,3.337,3.337,0,0,1-.264,1.292,5.019,5.019,0,0,1-.876,1.338,21.427,21.427,0,0,1-2.032,1.927q-1.187,1.017-1.523,1.379a4.393,4.393,0,0,0-.557.728Z" transform="translate(0 7.197)"/>
    <path id="Path_295" data-name="Path 295" class="cls-2" d="M217.243,328.513h-1.318v-8.569a6.794,6.794,0,0,1-1.248.927,8.91,8.91,0,0,1-1.389.7v-1.3a7.947,7.947,0,0,0,1.934-1.284,5.032,5.032,0,0,0,1.172-1.465h.85Z" transform="translate(0 7.197)"/>
    <path id="Path_296" data-name="Path 296" class="cls-2" d="M220.628,325.621l1.318-.179a2.993,2.993,0,0,0,.772,1.647,1.888,1.888,0,0,0,1.33.5,2.107,2.107,0,0,0,1.57-.657,2.24,2.24,0,0,0,.641-1.629,2.083,2.083,0,0,0-.593-1.527,2.028,2.028,0,0,0-1.509-.6,3.708,3.708,0,0,0-.93.149l.146-1.181a2.067,2.067,0,0,0,.212.016,2.68,2.68,0,0,0,1.517-.448,1.546,1.546,0,0,0,.674-1.383,1.65,1.65,0,0,0-.491-1.225,1.723,1.723,0,0,0-1.267-.486,1.778,1.778,0,0,0-1.282.493,2.5,2.5,0,0,0-.659,1.48l-1.318-.239a3.479,3.479,0,0,1,1.1-2.1,3.14,3.14,0,0,1,2.132-.743,3.461,3.461,0,0,1,1.618.385,2.758,2.758,0,0,1,1.523,2.462,2.336,2.336,0,0,1-.374,1.292,2.557,2.557,0,0,1-1.105.927,2.485,2.485,0,0,1,1.48.93,2.871,2.871,0,0,1,.527,1.768,3.264,3.264,0,0,1-1.025,2.432,3.57,3.57,0,0,1-2.593,1,3.293,3.293,0,0,1-3.413-3.086Z" transform="translate(0 7.202)"/>
    <path id="Path_297" data-name="Path 297" class="cls-2" d="M264.706,328.513h-1.318v-8.569a6.79,6.79,0,0,1-1.248.927,8.9,8.9,0,0,1-1.389.7v-1.3a7.947,7.947,0,0,0,1.934-1.284,5.03,5.03,0,0,0,1.172-1.465h.85Z" transform="translate(0 7.197)"/>
    <path id="Path_298" data-name="Path 298" class="cls-2" d="M272.31,328.513v-2.622h-4.658v-1.232l4.9-7.1h1.077v7.1h1.45v1.232h-1.45v2.622Zm0-3.854V319.72l-3.362,4.939Z" transform="translate(0 7.198)"/>
    <path id="Path_299" data-name="Path 299" class="cls-2" d="M312.168,328.513H310.85v-8.569a6.792,6.792,0,0,1-1.248.927,8.91,8.91,0,0,1-1.389.7v-1.3a7.947,7.947,0,0,0,1.934-1.284,5.032,5.032,0,0,0,1.172-1.465h.85Z" transform="translate(0 7.197)"/>
    <path id="Path_300" data-name="Path 300" class="cls-2" d="M315.545,325.644l1.384-.119a2.551,2.551,0,0,0,.714,1.55,1.917,1.917,0,0,0,1.352.52,2.086,2.086,0,0,0,1.611-.733,2.79,2.79,0,0,0,.659-1.942,2.523,2.523,0,0,0-.634-1.815,2.188,2.188,0,0,0-1.658-.664,2.283,2.283,0,0,0-1.956,1.06l-1.237-.164,1.039-5.626h5.34V319h-4.285l-.578,2.943a3.45,3.45,0,0,1,2.029-.687,3.18,3.18,0,0,1,2.373.994,3.51,3.51,0,0,1,.967,2.555,4.047,4.047,0,0,1-.85,2.57,3.381,3.381,0,0,1-2.82,1.329,3.43,3.43,0,0,1-2.392-.837,3.29,3.29,0,0,1-1.058-2.218Z" transform="translate(0 7.208)"/>
    <path id="Path_301" data-name="Path 301" class="cls-2" d="M27.394,363.679H26.075v-8.569a6.791,6.791,0,0,1-1.248.927,8.9,8.9,0,0,1-1.389.7v-1.3a7.95,7.95,0,0,0,1.934-1.284,5.028,5.028,0,0,0,1.172-1.465h.85Z" transform="translate(0 9.166)"/>
    <path id="Path_302" data-name="Path 302" class="cls-2" d="M37.611,355.408l-1.312.105a2.56,2.56,0,0,0-.5-1.151,1.731,1.731,0,0,0-1.318-.575,1.786,1.786,0,0,0-1.105.359A3.056,3.056,0,0,0,32.4,355.5a7.2,7.2,0,0,0-.374,2.533,3.045,3.045,0,0,1,2.607-1.457,2.965,2.965,0,0,1,2.245.989,3.6,3.6,0,0,1,.927,2.56,4.278,4.278,0,0,1-.437,1.916,3.14,3.14,0,0,1-2.926,1.826,3.349,3.349,0,0,1-2.687-1.236,6.334,6.334,0,0,1-1.04-4.075,7.419,7.419,0,0,1,1.149-4.617,3.283,3.283,0,0,1,2.7-1.255,3,3,0,0,1,2.076.725,3.1,3.1,0,0,1,.971,2Zm-5.384,4.722a3.176,3.176,0,0,0,.289,1.33,2.195,2.195,0,0,0,.81.968,2,2,0,0,0,1.092.332,1.843,1.843,0,0,0,1.435-.687,2.738,2.738,0,0,0,.6-1.867,2.563,2.563,0,0,0-.594-1.789,1.93,1.93,0,0,0-1.494-.654,2.012,2.012,0,0,0-1.516.654,2.382,2.382,0,0,0-.623,1.714Z" transform="translate(0 9.173)"/>
    <path id="Path_303" data-name="Path 303" class="cls-2" d="M74.856,363.679H73.538v-8.569a6.789,6.789,0,0,1-1.248.927,8.9,8.9,0,0,1-1.389.7v-1.3a7.949,7.949,0,0,0,1.934-1.284,5.031,5.031,0,0,0,1.172-1.465h.85Z" transform="translate(0 9.166)"/>
    <path id="Path_304" data-name="Path 304" class="cls-2" d="M78.321,354.161v-1.293h6.95v1.046a14.924,14.924,0,0,0-2.032,2.959,18.2,18.2,0,0,0-1.557,3.8,14.36,14.36,0,0,0-.5,3.011H79.822a13.673,13.673,0,0,1,.5-3.123,16.569,16.569,0,0,1,1.366-3.529,15.153,15.153,0,0,1,1.894-2.865Z" transform="translate(0 9.17)"/>
    <path id="Path_305" data-name="Path 305" class="cls-2" d="M122.319,363.679H121v-8.569a6.8,6.8,0,0,1-1.249.927,8.9,8.9,0,0,1-1.388.7v-1.3a7.949,7.949,0,0,0,1.934-1.284,5.031,5.031,0,0,0,1.172-1.465h.85Z" transform="translate(0 9.166)"/>
    <path id="Path_306" data-name="Path 306" class="cls-2" d="M127.725,357.739a2.48,2.48,0,0,1-1.216-.874,2.315,2.315,0,0,1-.4-1.359,2.685,2.685,0,0,1,.842-2.01,3.492,3.492,0,0,1,4.5.018,2.722,2.722,0,0,1,.856,2.028,2.27,2.27,0,0,1-.392,1.326,2.477,2.477,0,0,1-1.19.87,2.894,2.894,0,0,1,1.506,1.062,2.955,2.955,0,0,1,.516,1.748,3.176,3.176,0,0,1-.974,2.36,3.909,3.909,0,0,1-5.127,0,3.224,3.224,0,0,1-.975-2.395,2.931,2.931,0,0,1,.531-1.789,2.656,2.656,0,0,1,1.512-.982Zm-.688,2.779a2.466,2.466,0,0,0,.268,1.113,1.906,1.906,0,0,0,.794.833,2.293,2.293,0,0,0,1.136.3,2.105,2.105,0,0,0,1.56-.62,2.143,2.143,0,0,0,.615-1.576,2.182,2.182,0,0,0-.633-1.607,2.152,2.152,0,0,0-1.586-.635,2.06,2.06,0,0,0-1.542.628A2.153,2.153,0,0,0,127.036,360.519Zm.425-5.058a1.786,1.786,0,0,0,3.014,1.274,1.636,1.636,0,0,0,.487-1.2,1.775,1.775,0,0,0-3-1.256,1.6,1.6,0,0,0-.5,1.181Z" transform="translate(0 9.173)"/>
    <path id="Path_307" data-name="Path 307" class="cls-2" d="M169.781,363.679h-1.318v-8.569a6.79,6.79,0,0,1-1.248.927,8.9,8.9,0,0,1-1.389.7v-1.3a7.95,7.95,0,0,0,1.934-1.284,5.031,5.031,0,0,0,1.172-1.465h.85Z" transform="translate(0 9.166)"/>
    <path id="Path_308" data-name="Path 308" class="cls-2" d="M173.355,361.147l1.268-.12a2.248,2.248,0,0,0,.615,1.322,1.664,1.664,0,0,0,1.164.411,1.977,1.977,0,0,0,1.066-.284,2.286,2.286,0,0,0,.751-.758,4.483,4.483,0,0,0,.49-1.281,6.833,6.833,0,0,0,.2-1.643c0-.06,0-.149-.007-.269a3.05,3.05,0,0,1-1.081,1.042,2.89,2.89,0,0,1-1.483.4,2.972,2.972,0,0,1-2.256-.986,3.649,3.649,0,0,1-.922-2.6,3.734,3.734,0,0,1,.963-2.682,3.185,3.185,0,0,1,2.413-1.017,3.4,3.4,0,0,1,1.915.575,3.578,3.578,0,0,1,1.318,1.64,8.213,8.213,0,0,1,.451,3.082,10.156,10.156,0,0,1-.447,3.343,3.916,3.916,0,0,1-1.329,1.894,3.4,3.4,0,0,1-2.069.649,2.973,2.973,0,0,1-2.058-.713,3.091,3.091,0,0,1-.959-2.006Zm5.4-4.834a2.669,2.669,0,0,0-.6-1.838,1.88,1.88,0,0,0-1.454-.68,1.992,1.992,0,0,0-1.531.732,2.746,2.746,0,0,0-.651,1.9,2.368,2.368,0,0,0,.619,1.7,2.015,2.015,0,0,0,1.526.654,1.937,1.937,0,0,0,1.506-.654,2.608,2.608,0,0,0,.59-1.811Z" transform="translate(0 9.173)"/>
    <path id="Path_309" data-name="Path 309" class="cls-2" d="M219.206,362.387v1.292h-7.1a2.421,2.421,0,0,1,.153-.934,4.977,4.977,0,0,1,.868-1.457,13.623,13.623,0,0,1,1.725-1.658,14.808,14.808,0,0,0,2.365-2.32,2.811,2.811,0,0,0,.615-1.617,1.813,1.813,0,0,0-.561-1.349,2,2,0,0,0-1.461-.549,2.037,2.037,0,0,0-1.523.583,2.225,2.225,0,0,0-.578,1.613l-1.355-.142a3.432,3.432,0,0,1,1.047-2.357,3.53,3.53,0,0,1,2.439-.811,3.366,3.366,0,0,1,2.446.874,2.9,2.9,0,0,1,.9,2.167,3.337,3.337,0,0,1-.264,1.292,5.019,5.019,0,0,1-.876,1.338,21.422,21.422,0,0,1-2.032,1.927q-1.187,1.017-1.523,1.379a4.4,4.4,0,0,0-.557.729Z" transform="translate(0 9.166)"/>
    <path id="Path_310" data-name="Path 310" class="cls-2" d="M220.621,358.277a10.191,10.191,0,0,1,.392-3.126,3.9,3.9,0,0,1,1.164-1.827,2.942,2.942,0,0,1,1.944-.643,3.116,3.116,0,0,1,1.517.355,2.923,2.923,0,0,1,1.077,1.023,5.571,5.571,0,0,1,.666,1.628,11.031,11.031,0,0,1,.242,2.589,10.233,10.233,0,0,1-.389,3.111,3.9,3.9,0,0,1-1.161,1.831,3.223,3.223,0,0,1-4.391-.49,7.327,7.327,0,0,1-1.062-4.452Zm1.355,0a6.979,6.979,0,0,0,.619,3.59,1.75,1.75,0,0,0,3.054,0,10.716,10.716,0,0,0,0-7.18,1.829,1.829,0,0,0-1.541-.889,1.682,1.682,0,0,0-1.451.784A7.077,7.077,0,0,0,221.976,358.277Z" transform="translate(0 9.173)"/>
    <path id="Path_311" data-name="Path 311" class="cls-2" d="M266.669,362.387v1.292h-7.1a2.42,2.42,0,0,1,.153-.934,4.976,4.976,0,0,1,.868-1.457,13.621,13.621,0,0,1,1.725-1.658,14.808,14.808,0,0,0,2.365-2.32,2.811,2.811,0,0,0,.615-1.617,1.813,1.813,0,0,0-.56-1.349,2,2,0,0,0-1.461-.549,2.036,2.036,0,0,0-1.523.583,2.225,2.225,0,0,0-.578,1.613l-1.355-.142a3.433,3.433,0,0,1,1.047-2.357,3.53,3.53,0,0,1,2.439-.811,3.366,3.366,0,0,1,2.446.874,2.9,2.9,0,0,1,.9,2.167,3.337,3.337,0,0,1-.264,1.292,5.02,5.02,0,0,1-.876,1.338,21.422,21.422,0,0,1-2.032,1.927q-1.186,1.017-1.523,1.379a4.4,4.4,0,0,0-.557.729Z" transform="translate(0 9.166)"/>
    <path id="Path_312" data-name="Path 312" class="cls-2" d="M273.049,363.679H271.73v-8.569a6.79,6.79,0,0,1-1.248.927,8.9,8.9,0,0,1-1.389.7v-1.3a7.947,7.947,0,0,0,1.934-1.284,5.03,5.03,0,0,0,1.172-1.465h.85Z" transform="translate(0 9.166)"/>
    <path id="Path_313" data-name="Path 313" class="cls-2" d="M314.131,362.387v1.292h-7.1a2.421,2.421,0,0,1,.153-.934,4.977,4.977,0,0,1,.868-1.457,13.625,13.625,0,0,1,1.725-1.658,14.807,14.807,0,0,0,2.365-2.32,2.81,2.81,0,0,0,.615-1.617,1.813,1.813,0,0,0-.56-1.349,2,2,0,0,0-1.461-.549,2.036,2.036,0,0,0-1.523.583,2.225,2.225,0,0,0-.578,1.613l-1.355-.142a3.433,3.433,0,0,1,1.047-2.357,3.53,3.53,0,0,1,2.439-.811,3.366,3.366,0,0,1,2.446.874,2.9,2.9,0,0,1,.9,2.167,3.337,3.337,0,0,1-.264,1.292,5.021,5.021,0,0,1-.876,1.338,21.422,21.422,0,0,1-2.032,1.927q-1.186,1.017-1.523,1.379a4.4,4.4,0,0,0-.557.728Z" transform="translate(0 9.166)"/>
    <path id="Path_314" data-name="Path 314" class="cls-2" d="M322.473,362.387v1.292h-7.1a2.421,2.421,0,0,1,.153-.934,4.977,4.977,0,0,1,.868-1.457,13.625,13.625,0,0,1,1.725-1.658,14.811,14.811,0,0,0,2.365-2.32,2.811,2.811,0,0,0,.615-1.617,1.813,1.813,0,0,0-.56-1.349,2,2,0,0,0-1.461-.549,2.036,2.036,0,0,0-1.523.583,2.225,2.225,0,0,0-.578,1.613l-1.355-.142a3.433,3.433,0,0,1,1.047-2.357,3.53,3.53,0,0,1,2.439-.811,3.366,3.366,0,0,1,2.446.874,2.9,2.9,0,0,1,.9,2.167,3.337,3.337,0,0,1-.264,1.292,5.019,5.019,0,0,1-.876,1.338,21.43,21.43,0,0,1-2.032,1.927q-1.186,1.017-1.523,1.379a4.4,4.4,0,0,0-.557.728Z" transform="translate(0 9.166)"/>
    <path id="Path_315" data-name="Path 315" class="cls-2" d="M29.356,397.554v1.292h-7.1a2.421,2.421,0,0,1,.153-.934,4.955,4.955,0,0,1,.868-1.457,13.608,13.608,0,0,1,1.725-1.658,14.785,14.785,0,0,0,2.366-2.32,2.811,2.811,0,0,0,.615-1.617,1.813,1.813,0,0,0-.561-1.349,2,2,0,0,0-1.461-.549,2.036,2.036,0,0,0-1.523.583,2.229,2.229,0,0,0-.579,1.613l-1.355-.142a3.432,3.432,0,0,1,1.047-2.357A3.53,3.53,0,0,1,26,387.849a3.366,3.366,0,0,1,2.446.874,2.9,2.9,0,0,1,.9,2.167,3.337,3.337,0,0,1-.264,1.292,5.036,5.036,0,0,1-.875,1.338,21.555,21.555,0,0,1-2.032,1.927q-1.186,1.017-1.523,1.379a4.4,4.4,0,0,0-.557.729Z" transform="translate(0 11.135)"/>
    <path id="Path_316" data-name="Path 316" class="cls-2" d="M30.777,395.954l1.318-.179a2.994,2.994,0,0,0,.773,1.647,1.89,1.89,0,0,0,1.33.5,2.106,2.106,0,0,0,1.57-.657,2.241,2.241,0,0,0,.642-1.629,2.084,2.084,0,0,0-.594-1.527,2.028,2.028,0,0,0-1.509-.6,3.714,3.714,0,0,0-.93.149l.146-1.181a2.076,2.076,0,0,0,.212.016,2.678,2.678,0,0,0,1.517-.448,1.545,1.545,0,0,0,.674-1.383,1.65,1.65,0,0,0-.491-1.225,1.722,1.722,0,0,0-1.267-.486,1.779,1.779,0,0,0-1.282.493,2.5,2.5,0,0,0-.659,1.48l-1.318-.239a3.478,3.478,0,0,1,1.1-2.1,3.14,3.14,0,0,1,2.132-.743,3.46,3.46,0,0,1,1.618.385,2.758,2.758,0,0,1,1.523,2.462,2.343,2.343,0,0,1-.373,1.292,2.567,2.567,0,0,1-1.106.927,2.485,2.485,0,0,1,1.479.93,2.871,2.871,0,0,1,.527,1.767,3.264,3.264,0,0,1-1.025,2.432,3.57,3.57,0,0,1-2.593,1,3.293,3.293,0,0,1-3.413-3.086Z" transform="translate(0 11.144)"/>
    <path id="Path_317" data-name="Path 317" class="cls-2" d="M76.819,397.554v1.292h-7.1a2.421,2.421,0,0,1,.153-.934,4.954,4.954,0,0,1,.868-1.457,13.6,13.6,0,0,1,1.725-1.658,14.788,14.788,0,0,0,2.366-2.32,2.811,2.811,0,0,0,.615-1.617,1.813,1.813,0,0,0-.561-1.349,2,2,0,0,0-1.461-.549,2.036,2.036,0,0,0-1.523.583,2.229,2.229,0,0,0-.579,1.613l-1.355-.142a3.432,3.432,0,0,1,1.047-2.357,3.53,3.53,0,0,1,2.439-.811,3.366,3.366,0,0,1,2.446.874,2.9,2.9,0,0,1,.9,2.167,3.337,3.337,0,0,1-.264,1.292,5.038,5.038,0,0,1-.875,1.338,21.554,21.554,0,0,1-2.032,1.927q-1.186,1.017-1.523,1.379a4.391,4.391,0,0,0-.557.728Z" transform="translate(0 11.135)"/>
    <path id="Path_318" data-name="Path 318" class="cls-2" d="M82.459,398.846v-2.622H77.8v-1.232l4.9-7.1h1.076v7.1h1.45v1.232h-1.45v2.622Zm0-3.854v-4.939L79.1,394.991Z" transform="translate(0 11.136)"/>
    <path id="Path_319" data-name="Path 319" class="cls-2" d="M124.282,397.554v1.292h-7.1a2.422,2.422,0,0,1,.154-.934,4.969,4.969,0,0,1,.867-1.457,13.69,13.69,0,0,1,1.725-1.658,14.766,14.766,0,0,0,2.365-2.32,2.811,2.811,0,0,0,.615-1.617,1.813,1.813,0,0,0-.56-1.349,2,2,0,0,0-1.461-.549,2.036,2.036,0,0,0-1.523.583,2.229,2.229,0,0,0-.578,1.613l-1.355-.142a3.434,3.434,0,0,1,1.048-2.357,3.528,3.528,0,0,1,2.439-.811,3.366,3.366,0,0,1,2.446.874,2.9,2.9,0,0,1,.9,2.167,3.337,3.337,0,0,1-.264,1.292,5.02,5.02,0,0,1-.876,1.338,21.421,21.421,0,0,1-2.032,1.927q-1.187,1.016-1.523,1.379a4.4,4.4,0,0,0-.557.728Z" transform="translate(0 11.135)"/>
    <path id="Path_320" data-name="Path 320" class="cls-2" d="M125.7,395.977l1.385-.119a2.552,2.552,0,0,0,.714,1.55,1.917,1.917,0,0,0,1.352.52,2.086,2.086,0,0,0,1.611-.733,2.79,2.79,0,0,0,.659-1.942,2.527,2.527,0,0,0-.634-1.815,2.19,2.19,0,0,0-1.659-.664,2.283,2.283,0,0,0-1.955,1.06l-1.238-.164,1.04-5.626h5.34v1.285h-4.285l-.578,2.943a3.449,3.449,0,0,1,2.028-.687,3.18,3.18,0,0,1,2.373.994,3.51,3.51,0,0,1,.967,2.555,4.042,4.042,0,0,1-.85,2.57,3.378,3.378,0,0,1-2.819,1.329,3.428,3.428,0,0,1-2.392-.837,3.286,3.286,0,0,1-1.058-2.219Z" transform="translate(0 11.146)"/>
    <path id="Path_321" data-name="Path 321" class="cls-2" d="M171.744,397.554v1.292h-7.1a2.421,2.421,0,0,1,.153-.934,4.954,4.954,0,0,1,.868-1.457,13.605,13.605,0,0,1,1.725-1.658,14.788,14.788,0,0,0,2.366-2.32,2.811,2.811,0,0,0,.615-1.617,1.813,1.813,0,0,0-.56-1.349,2,2,0,0,0-1.461-.549,2.036,2.036,0,0,0-1.523.583,2.23,2.23,0,0,0-.579,1.613l-1.355-.142a3.433,3.433,0,0,1,1.047-2.357,3.53,3.53,0,0,1,2.439-.811,3.366,3.366,0,0,1,2.446.874,2.9,2.9,0,0,1,.9,2.167,3.337,3.337,0,0,1-.264,1.292,5.038,5.038,0,0,1-.875,1.338,21.559,21.559,0,0,1-2.032,1.927q-1.187,1.017-1.523,1.379a4.389,4.389,0,0,0-.557.728Z" transform="translate(0 11.135)"/>
    <path id="Path_322" data-name="Path 322" class="cls-2" d="M180,390.575l-1.31.105a2.56,2.56,0,0,0-.5-1.151,1.731,1.731,0,0,0-1.318-.575,1.783,1.783,0,0,0-1.105.359,3.051,3.051,0,0,0-.982,1.352,7.2,7.2,0,0,0-.373,2.533,3.042,3.042,0,0,1,2.607-1.457,2.965,2.965,0,0,1,2.245.989,3.6,3.6,0,0,1,.927,2.56,4.278,4.278,0,0,1-.437,1.916,3.14,3.14,0,0,1-2.926,1.826,3.351,3.351,0,0,1-2.688-1.236,6.334,6.334,0,0,1-1.039-4.075,7.418,7.418,0,0,1,1.149-4.617,3.281,3.281,0,0,1,2.7-1.255,3,3,0,0,1,2.077.725,3.1,3.1,0,0,1,.969,2Zm-5.383,4.722a3.176,3.176,0,0,0,.289,1.33,2.2,2.2,0,0,0,.81.968,1.993,1.993,0,0,0,1.091.332,1.843,1.843,0,0,0,1.435-.687,2.738,2.738,0,0,0,.6-1.867,2.562,2.562,0,0,0-.594-1.789,1.93,1.93,0,0,0-1.494-.654,2.01,2.01,0,0,0-1.516.654A2.378,2.378,0,0,0,174.615,395.3Z" transform="translate(0 11.144)"/>
    <path id="Path_323" data-name="Path 323" class="cls-2" d="M219.206,397.554v1.292h-7.1a2.421,2.421,0,0,1,.153-.934,4.975,4.975,0,0,1,.868-1.457,13.623,13.623,0,0,1,1.725-1.658,14.807,14.807,0,0,0,2.365-2.32,2.811,2.811,0,0,0,.615-1.617,1.813,1.813,0,0,0-.56-1.349,2,2,0,0,0-1.461-.549,2.036,2.036,0,0,0-1.523.583,2.225,2.225,0,0,0-.578,1.613l-1.355-.142a3.432,3.432,0,0,1,1.047-2.357,3.53,3.53,0,0,1,2.439-.811,3.366,3.366,0,0,1,2.446.874,2.9,2.9,0,0,1,.9,2.167,3.338,3.338,0,0,1-.264,1.292,5.019,5.019,0,0,1-.876,1.338,21.424,21.424,0,0,1-2.032,1.927q-1.187,1.016-1.523,1.379a4.4,4.4,0,0,0-.557.728Z" transform="translate(0 11.135)"/>
    <path id="Path_324" data-name="Path 324" class="cls-2" d="M220.709,389.328v-1.293h6.95v1.046a14.923,14.923,0,0,0-2.032,2.959,18.2,18.2,0,0,0-1.557,3.795,14.417,14.417,0,0,0-.506,3.011H222.21a13.673,13.673,0,0,1,.5-3.123,16.57,16.57,0,0,1,1.366-3.529,15.153,15.153,0,0,1,1.893-2.865Z" transform="translate(0 11.138)"/>
    <path id="Path_325" data-name="Path 325" class="cls-2" d="M266.669,397.554v1.292h-7.1a2.421,2.421,0,0,1,.153-.934,4.974,4.974,0,0,1,.868-1.457,13.619,13.619,0,0,1,1.725-1.658,14.809,14.809,0,0,0,2.365-2.32,2.81,2.81,0,0,0,.615-1.617,1.813,1.813,0,0,0-.56-1.349,2,2,0,0,0-1.461-.549,2.036,2.036,0,0,0-1.523.583,2.225,2.225,0,0,0-.578,1.613l-1.355-.142a3.433,3.433,0,0,1,1.047-2.357,3.53,3.53,0,0,1,2.439-.811,3.366,3.366,0,0,1,2.446.874,2.9,2.9,0,0,1,.9,2.167,3.337,3.337,0,0,1-.264,1.292,5.02,5.02,0,0,1-.876,1.338,21.43,21.43,0,0,1-2.032,1.927q-1.186,1.016-1.523,1.379a4.4,4.4,0,0,0-.557.728Z" transform="translate(0 11.135)"/>
    <path id="Path_326" data-name="Path 326" class="cls-2" d="M270.112,392.906a2.481,2.481,0,0,1-1.216-.874,2.315,2.315,0,0,1-.4-1.359,2.682,2.682,0,0,1,.843-2.01,3.49,3.49,0,0,1,4.5.018,2.723,2.723,0,0,1,.857,2.028,2.263,2.263,0,0,1-.393,1.326,2.474,2.474,0,0,1-1.19.87,2.9,2.9,0,0,1,1.5,1.062,2.955,2.955,0,0,1,.517,1.748,3.177,3.177,0,0,1-.975,2.36,3.909,3.909,0,0,1-5.127,0,3.224,3.224,0,0,1-.975-2.395,2.937,2.937,0,0,1,.531-1.789A2.66,2.66,0,0,1,270.112,392.906Zm-.689,2.779a2.465,2.465,0,0,0,.268,1.113,1.909,1.909,0,0,0,.795.833,2.29,2.29,0,0,0,1.135.3,2.107,2.107,0,0,0,1.56-.62,2.143,2.143,0,0,0,.615-1.576,2.183,2.183,0,0,0-.634-1.607,2.152,2.152,0,0,0-1.586-.635,2.062,2.062,0,0,0-1.542.628,2.157,2.157,0,0,0-.611,1.568Zm.425-5.058a1.786,1.786,0,0,0,3.014,1.273,1.632,1.632,0,0,0,.487-1.2,1.775,1.775,0,0,0-3-1.256,1.6,1.6,0,0,0-.5,1.181Z" transform="translate(0 11.144)"/>
    <path id="Path_327" data-name="Path 327" class="cls-2" d="M314.131,397.554v1.292h-7.1a2.421,2.421,0,0,1,.153-.934,4.975,4.975,0,0,1,.868-1.457,13.625,13.625,0,0,1,1.725-1.658,14.806,14.806,0,0,0,2.365-2.32,2.811,2.811,0,0,0,.615-1.617,1.814,1.814,0,0,0-.56-1.349,2,2,0,0,0-1.461-.549,2.036,2.036,0,0,0-1.523.583,2.225,2.225,0,0,0-.578,1.613l-1.355-.142a3.433,3.433,0,0,1,1.047-2.357,3.53,3.53,0,0,1,2.439-.811,3.366,3.366,0,0,1,2.446.874,2.9,2.9,0,0,1,.9,2.167,3.338,3.338,0,0,1-.264,1.292,5.019,5.019,0,0,1-.876,1.338,21.429,21.429,0,0,1-2.032,1.927q-1.187,1.017-1.523,1.379a4.4,4.4,0,0,0-.557.728Z" transform="translate(0 11.135)"/>
    <path id="Path_328" data-name="Path 328" class="cls-2" d="M315.742,396.314l1.268-.12a2.247,2.247,0,0,0,.615,1.322,1.664,1.664,0,0,0,1.164.411,1.977,1.977,0,0,0,1.065-.284,2.284,2.284,0,0,0,.751-.758,4.483,4.483,0,0,0,.49-1.281,6.833,6.833,0,0,0,.2-1.643c0-.06,0-.15-.007-.269a3.05,3.05,0,0,1-1.081,1.042,2.89,2.89,0,0,1-1.483.4,2.972,2.972,0,0,1-2.256-.986,3.649,3.649,0,0,1-.922-2.6,3.735,3.735,0,0,1,.963-2.682,3.185,3.185,0,0,1,2.413-1.017,3.4,3.4,0,0,1,1.915.575,3.577,3.577,0,0,1,1.318,1.64,8.213,8.213,0,0,1,.451,3.082,10.155,10.155,0,0,1-.447,3.343,3.915,3.915,0,0,1-1.329,1.895,3.4,3.4,0,0,1-2.069.649,2.973,2.973,0,0,1-2.059-.713A3.092,3.092,0,0,1,315.742,396.314Zm5.4-4.834a2.669,2.669,0,0,0-.6-1.838,1.88,1.88,0,0,0-1.454-.68,1.992,1.992,0,0,0-1.531.732,2.746,2.746,0,0,0-.651,1.9,2.368,2.368,0,0,0,.619,1.7,2.015,2.015,0,0,0,1.526.654,1.937,1.937,0,0,0,1.506-.654,2.608,2.608,0,0,0,.59-1.811Z" transform="translate(0 11.144)"/>
    <path id="Path_329" data-name="Path 329" class="cls-2" d="M22.435,431.12l1.318-.179a2.987,2.987,0,0,0,.773,1.647,1.886,1.886,0,0,0,1.329.5,2.11,2.11,0,0,0,1.571-.657,2.244,2.244,0,0,0,.641-1.629,2.083,2.083,0,0,0-.593-1.527,2.028,2.028,0,0,0-1.509-.6,3.718,3.718,0,0,0-.931.149l.146-1.181a2.053,2.053,0,0,0,.213.016,2.675,2.675,0,0,0,1.516-.448,1.545,1.545,0,0,0,.674-1.383,1.65,1.65,0,0,0-.49-1.225,1.724,1.724,0,0,0-1.268-.486,1.778,1.778,0,0,0-1.281.493,2.5,2.5,0,0,0-.659,1.48l-1.318-.239a3.478,3.478,0,0,1,1.1-2.1,3.138,3.138,0,0,1,2.131-.743,3.465,3.465,0,0,1,1.619.385,2.758,2.758,0,0,1,1.524,2.462,2.343,2.343,0,0,1-.374,1.292,2.563,2.563,0,0,1-1.105.927,2.485,2.485,0,0,1,1.479.93,2.871,2.871,0,0,1,.527,1.768,3.264,3.264,0,0,1-1.025,2.432,3.57,3.57,0,0,1-2.593,1,3.293,3.293,0,0,1-3.413-3.086Z" transform="translate(0 14)"/>
    <path id="Path_330" data-name="Path 330" class="cls-2" d="M30.771,428.61a10.19,10.19,0,0,1,.392-3.126,3.9,3.9,0,0,1,1.164-1.827,2.945,2.945,0,0,1,1.945-.643,3.112,3.112,0,0,1,1.516.355,2.916,2.916,0,0,1,1.077,1.024,5.546,5.546,0,0,1,.666,1.628,11.032,11.032,0,0,1,.242,2.589,10.232,10.232,0,0,1-.389,3.111,3.9,3.9,0,0,1-1.161,1.831,3.223,3.223,0,0,1-4.391-.49,7.327,7.327,0,0,1-1.061-4.452Zm1.354,0a6.98,6.98,0,0,0,.619,3.59,1.75,1.75,0,0,0,3.054,0,10.717,10.717,0,0,0,0-7.18,1.829,1.829,0,0,0-1.541-.889,1.681,1.681,0,0,0-1.45.784,7.065,7.065,0,0,0-.682,3.7Z" transform="translate(0 14)"/>
    <path id="Path_331" data-name="Path 331" class="cls-2" d="M69.9,431.12l1.318-.179a2.987,2.987,0,0,0,.772,1.647,1.886,1.886,0,0,0,1.329.5,2.109,2.109,0,0,0,1.571-.657,2.244,2.244,0,0,0,.641-1.629,2.083,2.083,0,0,0-.593-1.527,2.028,2.028,0,0,0-1.509-.6,3.719,3.719,0,0,0-.931.149l.146-1.181a2.053,2.053,0,0,0,.213.016,2.675,2.675,0,0,0,1.516-.448,1.544,1.544,0,0,0,.674-1.383,1.649,1.649,0,0,0-.49-1.225,1.724,1.724,0,0,0-1.268-.486,1.777,1.777,0,0,0-1.281.493,2.5,2.5,0,0,0-.659,1.48l-1.318-.239a3.478,3.478,0,0,1,1.1-2.1,3.138,3.138,0,0,1,2.131-.743,3.466,3.466,0,0,1,1.619.385,2.758,2.758,0,0,1,1.523,2.462,2.344,2.344,0,0,1-.374,1.292,2.563,2.563,0,0,1-1.105.927,2.485,2.485,0,0,1,1.479.93,2.871,2.871,0,0,1,.527,1.767A3.264,3.264,0,0,1,75.9,433.21a3.571,3.571,0,0,1-2.593,1,3.293,3.293,0,0,1-3.413-3.086Z" transform="translate(0 14)"/>
    <path id="Path_332" data-name="Path 332" class="cls-2" d="M83.2,434.012H81.881v-8.569a6.794,6.794,0,0,1-1.249.927,8.9,8.9,0,0,1-1.388.7v-1.3a7.947,7.947,0,0,0,1.934-1.284,5.03,5.03,0,0,0,1.172-1.465h.85Z" transform="translate(0 14)"/>
  </g>
</svg>
