<svg xmlns="http://www.w3.org/2000/svg" viewBox="0 0 146 158"><defs><style>.a{fill:#6a596b;stroke:#707070;}.b{fill:#fff;font-size:27px;font-family:ArialMT, Arial;}.c{fill:#fffaf9;}.d{fill:none;}.e{stroke:none;}</style></defs><g transform="translate(-205 -320)"><g transform="translate(180 158)"><g class="a" transform="translate(34 162)"><circle class="e" cx="64" cy="64" r="64"/><circle class="d" cx="64" cy="64" r="63.5"/></g><text class="b" transform="translate(26 314)"><tspan x="0" y="0">Afleveringer</tspan></text></g><g transform="translate(73 34)"><path class="c" d="M0,43.7V3.935a4.089,4.089,0,0,1,1.243-2.9A3.937,3.937,0,0,1,3.935,0h22.99a2.352,2.352,0,0,1,1.657.621,2.784,2.784,0,0,1,1.243,1.45l2.071,5.8H59.858a4.089,4.089,0,0,1,2.9,1.243A3.761,3.761,0,0,1,64,12.013v31.9a4.089,4.089,0,0,1-1.243,2.9,3.761,3.761,0,0,1-2.9,1.243H3.935a4.089,4.089,0,0,1-2.9-1.243A5.581,5.581,0,0,1,0,43.7Z" transform="translate(173 322)"/><rect class="d" width="64" height="64" transform="translate(173 320)"/></g></g></svg>
