<svg xmlns="http://www.w3.org/2000/svg" viewBox="0 0 40.065 39.473"><defs><style>.a{fill:#6a596b;stroke:#fffaf9;stroke-width:3px;}.b{fill:#fffaf9;}</style></defs><g transform="translate(45.434 46.191)"><g transform="translate(-44.153 -44.691)"><path class="a" d="M0,0H28.42V33.6H0Z" transform="translate(0.219)"/><g transform="translate(0 1.093)"><path class="b" d="M9.045,46.3l.327-30.41,14.96,2.61-.2,31.6Z" transform="translate(-7.942 -14.6)"/><path class="b" d="M6.509,12.7,19.29,14.919,19.1,43.981,6.2,40.744l.3-28.048M4.351,10,4,42.546,21.27,46.88l.219-33.9Z" transform="translate(-4 -10)"/></g><g transform="translate(20.269 16.153)"><rect class="b" width="12.58" height="1.816"/><path class="b" d="M125.58,77.3H113v1.816h12.58V77.3Z" transform="translate(-113 -77.299)"/></g><path class="b" d="M145.472,60.72l6.193,6.5-5.975,6.742" transform="translate(-112.881 -50.319)"/></g></g></svg>
