<svg xmlns="http://www.w3.org/2000/svg" viewBox="0 0 128 162"><defs><style>.a{fill:#6a596b;stroke:#707070;}.b{fill:#fff;font-size:27px;font-family:ArialMT, Arial;}.c{fill:#fffaf9;}.d{stroke:none;}.e{fill:none;}</style></defs><g transform="translate(-34 -478)"><g transform="translate(0 316)"><g class="a" transform="translate(34 162)"><circle class="d" cx="64" cy="64" r="64"/><circle class="e" cx="64" cy="64" r="63.5"/></g><text class="b" transform="translate(47 318)"><tspan x="0" y="0">Nyheder</tspan></text></g><g transform="translate(-1320 -332)"><path class="c" d="M9.6,9.6Q18.4,0,32,0T54.4,9.6Q64,18.4,64,32T54.4,54.4Q45.6,64,32,64T9.6,54.4C3.733,48,0,41.067,0,32S3.2,15.467,9.6,9.6Zm26.667,48q3.2,0,8-4.8C46.4,49.067,48,45.333,48,41.6a8.832,8.832,0,0,0-2.667-6.4A9.388,9.388,0,0,0,38.4,32H33.067a15.573,15.573,0,0,1-4.8-1.067,4.842,4.842,0,0,1-1.6-3.733,2.771,2.771,0,0,1,1.067-2.133A4.043,4.043,0,0,1,29.867,24a3.64,3.64,0,0,1,2.667,1.6c1.067.533,1.6,1.067,2.133,1.067a3.207,3.207,0,0,0,2.133-.533A3.207,3.207,0,0,0,37.333,24a8.487,8.487,0,0,0-2.667-5.333A22.06,22.06,0,0,0,37.333,8.533a1.147,1.147,0,0,0-1.067-1.067A16.487,16.487,0,0,0,32,6.4c-5.867.533-10.133,1.6-13.867,4.267a13.427,13.427,0,0,0-4.8,10.667A13.656,13.656,0,0,0,17.6,31.467a14.571,14.571,0,0,0,10.133,4.267h0v2.133A6.847,6.847,0,0,0,29.867,43.2a7.767,7.767,0,0,0,4.8,3.2V56c0,.533,0,.533.533,1.067S35.733,57.6,36.267,57.6Z" transform="translate(1384 844)"/></g></g></svg>
