<svg xmlns="http://www.w3.org/2000/svg" viewBox="0 0 157 162"><defs><style>.a{fill:#6a596b;stroke:#707070;}.b{fill:#fff;font-size:27px;font-family:ArialMT, Arial;}.c{fill:none;}.d{fill:#fffaf9;fill-rule:evenodd;}.e{stroke:none;}</style></defs><g transform="translate(-200 -478)"><g transform="translate(180 316)"><g class="a" transform="translate(34 162)"><circle class="e" cx="64" cy="64" r="64"/><circle class="c" cx="64" cy="64" r="63.5"/></g><text class="b" transform="translate(20 318)"><tspan x="0" y="0">Opslagstavle</tspan></text></g><g transform="translate(-538 -11951)"><rect class="c" width="16" height="16" transform="translate(784 12463)"/><path class="d" d="M60.12,56h-20.1a8.041,8.041,0,0,1-16.082,0H3.832A3.858,3.858,0,0,1,.213,53.2c-.4-1.6,0-3.6,1.206-4.4A16.076,16.076,0,0,0,7.852,36V24A24.124,24.124,0,0,1,56.1,24V36a16.076,16.076,0,0,0,6.433,12.8c1.206,1.2,2.01,2.8,1.206,4.4A3.858,3.858,0,0,1,60.12,56Z" transform="translate(783.938 12463)"/></g></g></svg>
