<svg xmlns="http://www.w3.org/2000/svg" viewBox="0 0 17.138 17.138"><defs><style>.a{fill:none;}.b{fill:#fff;fill-rule:evenodd;}</style></defs><g transform="translate(528.932 -193)"><g transform="translate(-528.932 193)"><rect class="a" width="17.138" height="17.138"/><path class="b" d="M7.5,8.569a2.142,2.142,0,1,1-2.142,2.142A2.149,2.149,0,0,1,7.5,8.569Zm0-6.427A2.149,2.149,0,0,0,5.356,4.285H9.64A2.149,2.149,0,0,0,7.5,2.142Zm5.356,15H2.142A2.149,2.149,0,0,1,0,15V6.427A2.149,2.149,0,0,1,2.142,4.285H3.213a4.285,4.285,0,1,1,8.569,0h1.071A2.149,2.149,0,0,1,15,6.427V15A2.149,2.149,0,0,1,12.854,17.138Z" transform="translate(1.071)"/></g></g></svg>
