<svg xmlns="http://www.w3.org/2000/svg" viewBox="0 0 128 158"><defs><style>.a{fill:#6a596b;stroke:#707070;}.b{fill:#fff;font-size:27px;font-family:ArialMT, Arial;}.c{fill:none;}.d{fill:#fffaf9;fill-rule:evenodd;}.e{stroke:none;}</style></defs><g transform="translate(-34 -320)"><g transform="translate(0 158)"><g class="a" transform="translate(34 162)"><circle class="e" cx="64" cy="64" r="64"/><circle class="c" cx="64" cy="64" r="63.5"/></g><text class="b" transform="translate(54 314)"><tspan x="0" y="0">Skema</tspan></text></g><g transform="translate(40 107)"><rect class="c" width="16" height="16" transform="translate(24 242)"/><path class="d" d="M8,20V56H56V20ZM52,8h8a3.779,3.779,0,0,1,4,4V60a3.779,3.779,0,0,1-4,4H4a3.779,3.779,0,0,1-4-4V12A3.779,3.779,0,0,1,4,8h8V4a3.779,3.779,0,0,1,4-4,3.779,3.779,0,0,1,4,4V8H44V4a4,4,0,0,1,8,0ZM48,48H40V40h8ZM36,48H28V40h8ZM48,36H40V28h8ZM36,36H28V28h8ZM24,48H16V40h8Z" transform="translate(24 242)"/></g></g></svg>
