<svg xmlns="http://www.w3.org/2000/svg" viewBox="0 0 26.75 26.75">
  <defs>
    <style>
      .cls-1 {
        fill: none;
      }

      .cls-2 {
        fill: #f38c80;
      }
    </style>
  </defs>
  <g id="Group_26" data-name="Group 26" transform="translate(-322.25 -259)">
    <g id="Attachment" transform="translate(-42.75 -333)">
      <rect id="Rectangle_314" data-name="Rectangle 314" class="cls-1" width="26.75" height="26.75" transform="translate(365 592)"/>
      <path id="Path_125" data-name="Path 125" class="cls-2" d="M9.363,26.75a8.435,8.435,0,0,1-6.242-2.675A8.612,8.612,0,0,1,0,17.388a8.945,8.945,0,0,1,.669-3.344,7.708,7.708,0,0,1,1.56-2.675L6.688,6.91A5.372,5.372,0,0,1,10.7,5.35a6.09,6.09,0,0,1,4.235,1.783,5.724,5.724,0,0,1,1.783,4.458,5.372,5.372,0,0,1-1.56,4.013l-2.452,2.229a1.7,1.7,0,0,1-1.115.446,2.39,2.39,0,0,1-1.338-.446A3.168,3.168,0,0,1,9.808,16.5a3.168,3.168,0,0,1,.446-1.337l2.452-2.452a1.348,1.348,0,0,0,.669-1.337,2.723,2.723,0,0,0-.892-2.006,2.6,2.6,0,0,0-1.56-.446,3.222,3.222,0,0,0-1.56.446L4.681,13.821a6.167,6.167,0,0,0-1.115,3.567A6.521,6.521,0,0,0,5.35,21.623,4.625,4.625,0,0,0,7.579,22.96a3.854,3.854,0,0,0,2.229.223c.669-.223,1.338-.223,1.783-.446a4.663,4.663,0,0,0,1.337-.892l8.917-8.917a4.889,4.889,0,0,0,1.56-3.79A5.84,5.84,0,0,0,21.4,4.9a9.927,9.927,0,0,0-2.675-1.338H16.719a4.72,4.72,0,0,0-1.56.669,2.827,2.827,0,0,1-1.338.223,1.481,1.481,0,0,1-1.115-.892c-.223-.223-.223-.669-.223-1.338a3.914,3.914,0,0,1,.892-1.115A8.78,8.78,0,0,1,17.833,0a8.253,8.253,0,0,1,5.8,2.229A9.407,9.407,0,0,1,26.75,8.917,8.723,8.723,0,0,1,24.3,15.381L15.381,24.3A8.232,8.232,0,0,1,9.363,26.75Z" transform="translate(365 592)"/>
    </g>
  </g>
</svg>
